<?xml version="1.0" standalone="no"?>
<!DOCTYPE svg PUBLIC "-//W3C//DTD SVG 20010904//EN"
 "http://www.w3.org/TR/2001/REC-SVG-20010904/DTD/svg10.dtd">
<svg version="1.0" xmlns="http://www.w3.org/2000/svg"
 width="510.000000pt" height="510.000000pt" viewBox="0 0 510.000000 510.000000"
 preserveAspectRatio="xMidYMid meet">
<metadata>
Created by potrace 1.14, written by Peter Selinger 2001-2017
</metadata>
<g transform="translate(0.000000,510.000000) scale(0.100000,-0.100000)"
fill="#000000" stroke="none">
<path d="M2465 4991 c-57 -26 -71 -46 -99 -142 -25 -87 -51 -237 -43 -245 3
-3 -2 -33 -10 -67 -8 -34 -16 -71 -17 -82 -2 -11 -6 -27 -9 -35 -3 -8 -8 -26
-10 -40 -3 -14 -15 -59 -26 -100 -12 -41 -38 -133 -57 -205 -20 -71 -42 -139
-49 -150 -8 -14 -32 -25 -73 -33 -110 -23 -134 -70 -168 -322 -25 -188 -32
-227 -49 -260 -9 -17 -21 -58 -26 -90 -8 -49 -5 -74 17 -165 25 -104 25 -116
21 -344 -3 -130 -8 -254 -13 -276 -4 -22 -7 -65 -6 -95 2 -30 2 -503 1 -1050
-1 -744 2 -1010 11 -1053 17 -84 51 -118 137 -140 62 -17 116 -18 603 -14 294
2 548 7 564 11 44 11 63 23 90 59 45 61 48 109 37 600 -30 1253 -32 1384 -22
1467 8 66 8 109 -4 195 -22 167 -20 517 4 619 22 89 16 164 -18 240 -11 24
-23 90 -30 158 -14 142 -44 293 -68 344 -20 42 -71 73 -133 81 -23 3 -44 13
-49 22 -5 9 -30 86 -55 171 -26 85 -60 196 -76 245 -28 90 -47 174 -56 250
-23 200 -68 379 -105 416 -50 50 -143 63 -214 30z"/>
</g>
</svg>
